<?xml version="1.0" encoding="UTF-8"?>
<svg width="14px" height="14px" viewBox="0 0 14 14" version="1.1" xmlns="http://www.w3.org/2000/svg" xmlns:xlink="http://www.w3.org/1999/xlink">
    <!-- Generator: Sketch 47.1 (45422) - http://www.bohemiancoding.com/sketch -->
    <title>Shape</title>
    <desc>Created with Sketch.</desc>
    <defs></defs>
    <g id="Page-1" stroke="none" stroke-width="1" fill="none" fill-rule="evenodd">
        <g id="Shop" transform="translate(-647.000000, -1289.000000)" fill="#FFFFFF">
            <g id="Product" transform="translate(415.000000, 810.000000)">
                <g id="4" transform="translate(0.000000, 456.000000)">
                    <path d="M245.986875,27.8757851 C245.984688,27.8906597 245.996063,27.9033468 245.992563,27.9186588 L244.23693,33.8754726 C244.24043,33.8969095 244.249617,33.9157214 244.249617,33.9375957 C244.249617,34.1550264 244.088622,34.3269585 243.881254,34.3610825 C243.858942,34.3672073 243.837505,34.3728946 243.814756,34.375082 C243.813443,34.375082 243.813006,34.3755195 243.812131,34.3755195 L237.687322,34.3755195 C237.681197,34.3755195 237.676385,34.3720196 237.67026,34.3720196 C237.456767,34.376832 237.258586,34.2556483 237.2004,34.0579044 L235.614075,28.1019656 C235.545389,28.0245305 235.499891,27.9247836 235.499891,27.8132246 C235.499891,27.7843505 235.51039,27.7598513 235.51564,27.7327271 L234.721602,24.7503828 L232.437486,24.7503828 C232.195556,24.7503828 232,24.5543889 232,24.3128965 C232,24.071404 232.195556,23.8754101 232.437486,23.8754101 L235.062404,23.8754101 C235.068529,23.8754101 235.072904,23.87891 235.079029,23.87891 C235.292522,23.8745352 235.491141,23.9952814 235.548889,24.1925877 L236.396738,27.3748633 L245.531452,27.3748633 C245.538014,27.3744258 245.544577,27.3757383 245.551139,27.3748633 L245.562076,27.3748633 C245.563826,27.3748633 245.565576,27.3761757 245.567326,27.3761757 C245.611075,27.3735508 245.654386,27.3722384 245.699009,27.3849255 C245.712134,27.3884254 245.716071,27.4037374 245.728758,27.4085497 C245.799194,27.4374238 245.855192,27.4886097 245.902003,27.5481079 C245.923002,27.5756695 245.942252,27.5957939 245.956251,27.6286054 C245.982501,27.6846036 246,27.7462892 246,27.8127871 C245.999563,27.8350989 245.990375,27.8539108 245.986875,27.8757851 L245.986875,27.8757851 Z M236.62948,28.2498359 L238.027687,33.5001094 L243.479641,33.5001094 L245.026593,28.2498359 L236.62948,28.2498359 L236.62948,28.2498359 Z M238.124809,35.2500547 C238.607794,35.2500547 238.999781,35.6416049 238.999781,36.1245899 C238.999781,36.6080122 238.607794,37 238.124809,37 C237.641824,37 237.249836,36.6080122 237.249836,36.1245899 C237.249836,35.6416049 237.641824,35.2500547 238.124809,35.2500547 L238.124809,35.2500547 Z M242.499672,35.2500547 C242.982657,35.2500547 243.374645,35.6416049 243.374645,36.1245899 C243.374645,36.6080122 242.982657,37 242.499672,37 C242.016687,37 241.624699,36.6080122 241.624699,36.1245899 C241.624699,35.6416049 242.016687,35.2500547 242.499672,35.2500547 L242.499672,35.2500547 Z" id="Shape"></path>
                </g>
            </g>
        </g>
    </g>
</svg>