<?xml version="1.0" encoding="UTF-8"?>
<svg width="13px" height="13px" viewBox="0 0 13 13" version="1.1" xmlns="http://www.w3.org/2000/svg" xmlns:xlink="http://www.w3.org/1999/xlink">
    <!-- Generator: Sketch 47.1 (45422) - http://www.bohemiancoding.com/sketch -->
    <title>Shape</title>
    <desc>Created with Sketch.</desc>
    <defs></defs>
    <g id="Page-1" stroke="none" stroke-width="1" fill="none" fill-rule="evenodd">
        <g id="Shop" transform="translate(-1223.000000, -52.000000)" fill="#FFFFFF">
            <g id="Navigation">
                <g id="nav-bar" transform="translate(616.000000, 42.000000)">
                    <g id="shop-bag" transform="translate(599.000000, 0.000000)">
                        <path d="M20.9878129,13.7146339 C20.9857817,13.728446 20.9963439,13.7402269 20.993094,13.7544452 L19.3628637,19.2857723 C19.3661136,19.3056779 19.3746445,19.3231462 19.3746445,19.343458 C19.3746445,19.545358 19.2251492,19.7050092 19.0325927,19.7366957 C19.0118746,19.7423831 18.991969,19.7476641 18.9708447,19.7496953 C18.9696259,19.7496953 18.9692197,19.7501016 18.9684072,19.7501016 L13.281085,19.7501016 C13.2753976,19.7501016 13.270929,19.7468517 13.2652417,19.7468517 C13.0669979,19.7513203 12.8829724,19.6387925 12.8289428,19.4551733 L11.3559264,13.9246586 C11.2921471,13.8527546 11.2498984,13.7601325 11.2498984,13.656542 C11.2498984,13.6297303 11.2596481,13.606981 11.264523,13.5817943 L10.5272023,10.8124746 L8.40623731,10.8124746 C8.18158808,10.8124746 8,10.6304803 8,10.4062373 C8,10.1819943 8.18158808,10 8.40623731,10 L10.8436611,10 C10.8493485,10 10.8534108,10.0032499 10.8590982,10.0032499 C11.057342,9.99918753 11.2417737,10.111309 11.295397,10.294522 L12.0826849,13.2494922 L20.5649198,13.2494922 C20.5710134,13.249086 20.577107,13.2503047 20.5832005,13.2494922 L20.5933565,13.2494922 C20.5949814,13.2494922 20.5966064,13.2507109 20.5982313,13.2507109 C20.638855,13.2482735 20.6790725,13.2470548 20.7205087,13.2588357 C20.7326959,13.2620856 20.736352,13.2763039 20.7481329,13.2807725 C20.8135371,13.3075841 20.8655355,13.3551139 20.9090028,13.4103622 C20.9285022,13.4359551 20.9463767,13.454642 20.9593763,13.4851098 C20.9837505,13.5371082 21,13.5943877 21,13.6561357 C20.9995938,13.6768538 20.9910628,13.6943221 20.9878129,13.7146339 L20.9878129,13.7146339 Z M12.2988032,14.0619668 L13.5971376,18.9372207 L18.6596669,18.9372207 L20.096122,14.0619668 L12.2988032,14.0619668 L12.2988032,14.0619668 Z M13.6873223,20.5621699 C14.1358083,20.5621699 14.4997969,20.9257523 14.4997969,21.3742383 C14.4997969,21.8231305 14.1358083,22.1871192 13.6873223,22.1871192 C13.2388363,22.1871192 12.8748477,21.8231305 12.8748477,21.3742383 C12.8748477,20.9257523 13.2388363,20.5621699 13.6873223,20.5621699 L13.6873223,20.5621699 Z M17.7496953,20.5621699 C18.1981813,20.5621699 18.5621699,20.9257523 18.5621699,21.3742383 C18.5621699,21.8231305 18.1981813,22.1871192 17.7496953,22.1871192 C17.3012093,22.1871192 16.9372207,21.8231305 16.9372207,21.3742383 C16.9372207,20.9257523 17.3012093,20.5621699 17.7496953,20.5621699 L17.7496953,20.5621699 Z" id="Shape"></path>
                    </g>
                </g>
            </g>
        </g>
    </g>
</svg>