<?xml version="1.0" encoding="UTF-8"?>
<svg width="11px" height="11px" viewBox="0 0 11 11" version="1.1" xmlns="http://www.w3.org/2000/svg" xmlns:xlink="http://www.w3.org/1999/xlink">
    <!-- Generator: Sketch 47.1 (45422) - http://www.bohemiancoding.com/sketch -->
    <title>Shape</title>
    <desc>Created with Sketch.</desc>
    <defs></defs>
    <g id="Page-1" stroke="none" stroke-width="1" fill="none" fill-rule="evenodd">
        <g id="Shop" transform="translate(-1264.000000, -52.000000)" fill="#FFFFFF">
            <g id="Navigation">
                <g id="nav-bar" transform="translate(616.000000, 42.000000)">
                    <g id="search" transform="translate(638.000000, 0.000000)">
                        <path d="M20.8970757,20.8970757 C20.7598434,21.034652 20.5373137,21.034652 20.3997374,20.8970757 L18.4458098,18.9431482 C18.6219075,18.7880309 18.7876869,18.6219075 18.9431482,18.4458098 L20.8970757,20.3997374 C21.0343081,20.5369697 21.0343081,20.7594994 20.8970757,20.8970757 L20.8970757,20.8970757 Z M14.8151709,19.6306858 C12.1558208,19.6306858 10,17.4741771 10,14.8155149 C10,12.1558208 12.1558208,10 14.8151709,10 C17.474521,10 19.6303418,12.1558208 19.6303418,14.8155149 C19.6303418,17.474521 17.4741771,19.6306858 14.8151709,19.6306858 L14.8151709,19.6306858 Z M14.8151709,10.6878816 C12.5358754,10.6878816 10.6878816,12.5362193 10.6878816,14.8155149 C10.6878816,17.0944665 12.5355314,18.9424603 14.8151709,18.9424603 C17.0948104,18.9424603 18.9424603,17.0944665 18.9424603,14.8155149 C18.9424603,12.5362193 17.0944665,10.6878816 14.8151709,10.6878816 L14.8151709,10.6878816 Z" id="Shape"></path>
                    </g>
                </g>
            </g>
        </g>
    </g>
</svg>