<?xml version="1.0" encoding="UTF-8"?>
<svg width="62px" height="68px" viewBox="0 0 62 68" version="1.1" xmlns="http://www.w3.org/2000/svg" xmlns:xlink="http://www.w3.org/1999/xlink">
    <!-- Generator: Sketch 47.1 (45422) - http://www.bohemiancoding.com/sketch -->
    <title>Avatar</title>
    <desc>Created with Sketch.</desc>
    <defs></defs>
    <g id="Uber-iOS-Wireframe-Components" stroke="none" stroke-width="1" fill="none" fill-rule="evenodd">
        <g id="Example-View---Cards" transform="translate(-59.000000, -775.000000)" fill="#F2F2F4">
            <g id="Cards" transform="translate(20.000000, 148.000000)">
                <g id="Card-2" transform="translate(0.000000, 585.000000)">
                    <g id="Optional-Header" transform="translate(30.000000, 30.000000)">
                        <g id="Avatar-(40x40)">
                            <g id="Avatar-Placeholder-(40x40)">
                                <path d="M9.30524345,65.0239915 C9.30524345,65.0239915 20.4572097,49.7855531 40.0692884,49.7855531 C59.681367,49.7855531 70.8333333,65.0239915 70.8333333,65.0239915 L70.6947566,79.068066 C70.6947566,83.2586366 68.3874532,86.6872852 65.5674157,86.6872852 L14.2940075,86.6872852 C11.47397,86.6872852 9.16666667,83.2586366 9.16666667,79.068066 L9.30524345,65.0239915 Z M55.57823,28.1482696 C55.57823,36.6947282 48.5992062,43.6872852 40.0692884,43.6872852 C31.5393705,43.6872852 24.5603468,36.6947282 24.5603468,28.1482696 C24.5603468,19.601811 31.5393705,12.6092539 40.0692884,12.6092539 C48.5992062,12.6092539 55.57823,19.601811 55.57823,28.1482696 Z" id="Avatar"></path>
                            </g>
                        </g>
                    </g>
                </g>
            </g>
        </g>
    </g>
</svg>