<?xml version="1.0" encoding="UTF-8"?>
<svg width="36px" height="36px" viewBox="0 0 36 36" version="1.1" xmlns="http://www.w3.org/2000/svg" xmlns:xlink="http://www.w3.org/1999/xlink">
    <!-- Generator: Sketch 47.1 (45422) - http://www.bohemiancoding.com/sketch -->
    <title>Picture Placeholder</title>
    <desc>Created with Sketch.</desc>
    <defs></defs>
    <g id="Uber-iOS-Wireframe-Components" stroke="none" stroke-width="1" fill="none" fill-rule="evenodd">
        <g id="iOS-Wireframe-Components" transform="translate(-2832.000000, -5452.000000)" fill="#B2B2BA">
            <g id="Components" transform="translate(2274.000000, 270.000000)">
                <g id="Card-Views" transform="translate(6.000000, 4830.000000)">
                    <g id="Card-w/-Header-+-Rich-Media-+-Supporting-Text-+-Actions" transform="translate(20.000000, 320.000000)">
                        <g id="Optional-Header" transform="translate(30.000000, 30.000000)">
                            <g id="Icon-(20x20)---Right" transform="translate(500.000000, 0.000000)">
                                <path d="M5,38 C3.344,38 2,36.656 2,35 L2,5 C2,3.344 3.344,2 5,2 L35,2 C36.656,2 38,3.344 38,5 L38,35 C38,36.656 36.656,38 35,38 L5,38 Z M5,29 L35,29 L35,5 L5,5 L5,29 Z M27.25,9.25 C28.768,9.25 30,10.482 30,12 C30,13.518 28.768,14.75 27.25,14.75 C25.732,14.75 24.5,13.518 24.5,12 C24.5,10.482 25.732,9.25 27.25,9.25 Z M7.13916016,26.026123 L16.0015094,15.050942 L22.9498577,22.9992904 L26.5220598,19.4270883 L33.1210945,26.026123 L7.13916016,26.026123 Z" id="Picture-Placeholder"></path>
                            </g>
                        </g>
                    </g>
                </g>
            </g>
        </g>
    </g>
</svg>