<svg id="Layer_1" data-name="Layer 1" xmlns="http://www.w3.org/2000/svg" width="24" height="24" viewBox="0 0 24 24"><title>wqewqeqwewqeqeqwe</title><path d="M6.21,20.18c0.16,0.18-2.47-.91-2.29-0.74,0,0,3.82-1.31,5.21-1.87l0.19-.14a5.48,5.48,0,0,1-4.56-1.12s2-.81,1.6-5.78S8.58,4.43,10,4.31a2,2,0,0,1,1.73.57,2,2,0,0,1,1.73-.57c1.4,0.11,4,1.27,3.61,6.22s1.6,5.78,1.6,5.78a5.48,5.48,0,0,1-4.82,1.06,1,1,0,0,0,.25.2A35.5,35.5,0,0,0,18.38,19l1.72,0.47L19,20l-0.79.23m-6.53,3.09h0"/><path d="M12,0A12,12,0,0,0,3.47,20.44h0A12,12,0,1,0,12,0ZM3.92,19.44A11,11,0,1,1,23,12a10.92,10.92,0,0,1-2.9,7.43"/></svg>